<?xml version="1.0" standalone="no"?>
<!DOCTYPE svg PUBLIC "-//W3C//DTD SVG 20010904//EN"
 "http://www.w3.org/TR/2001/REC-SVG-20010904/DTD/svg10.dtd">
<svg version="1.0" xmlns="http://www.w3.org/2000/svg"
 width="330.000000pt" height="330.000000pt" viewBox="0 0 330.000000 330.000000"
 preserveAspectRatio="xMidYMid meet">
<metadata>
Created by potrace 1.11, written by Peter Selinger 2001-2013
</metadata>
<g transform="translate(0.000000,330.000000) scale(0.100000,-0.100000)"
fill="#000000" stroke="none">
<path d="M1467 3290 c-571 -72 -1053 -412 -1297 -914 -271 -558 -211 -1218
158 -1712 251 -336 618 -561 1045 -641 128 -23 426 -23 554 0 712 133 1229
658 1355 1377 19 110 16 412 -5 527 -130 701 -651 1222 -1348 1349 -100 18
-366 26 -462 14z m458 -319 c272 -58 506 -189 701 -393 182 -192 292 -404 351
-678 25 -118 25 -382 0 -500 -62 -290 -173 -497 -377 -700 -203 -204 -410
-315 -700 -377 -118 -25 -382 -25 -499 0 -275 59 -488 169 -677 350 -210 200
-345 444 -401 724 -24 122 -24 384 0 506 55 276 190 521 393 717 221 213 477
333 794 374 78 10 327 -4 415 -23z"/>
<path d="M2014 2580 c-107 -23 -218 -109 -262 -204 -68 -145 -45 -298 65 -416
33 -36 77 -70 111 -87 51 -25 68 -28 157 -28 87 0 107 3 157 27 130 61 208
177 216 321 6 127 -37 227 -135 311 -72 61 -214 96 -309 76z"/>
<path d="M1150 2213 c-63 -47 -114 -89 -112 -94 1 -5 113 -161 248 -345 135
-185 243 -339 239 -342 -4 -4 -90 -8 -191 -10 l-184 -3 0 -143 0 -143 122 -6
c183 -10 860 -8 856 2 -5 15 -853 1170 -858 1170 -3 0 -57 -39 -120 -86z"/>
<path d="M1522 843 l3 -148 343 -3 342 -2 0 150 0 150 -345 0 -346 0 3 -147z"/>
</g>
</svg>
