<?xml version="1.0" standalone="no"?>
<!DOCTYPE svg PUBLIC "-//W3C//DTD SVG 20010904//EN"
 "http://www.w3.org/TR/2001/REC-SVG-20010904/DTD/svg10.dtd">
<svg version="1.0" xmlns="http://www.w3.org/2000/svg"
 width="700.000000pt" height="700.000000pt" viewBox="0 0 700.000000 700.000000"
 preserveAspectRatio="xMidYMid meet">
<metadata>
Created by potrace 1.11, written by Peter Selinger 2001-2013
</metadata>
<g transform="translate(0.000000,700.000000) scale(0.100000,-0.100000)"
fill="#000000" stroke="none">
<path d="M3239 6989 c-638 -49 -1261 -276 -1780 -647 -287 -205 -596 -515
-807 -809 -204 -284 -396 -674 -497 -1008 -231 -764 -198 -1579 92 -2310 277
-697 767 -1286 1405 -1686 596 -373 1345 -565 2035 -521 768 48 1439 307 2023
781 670 543 1123 1340 1250 2196 90 608 18 1235 -207 1800 -277 697 -767 1286
-1405 1686 -616 385 -1383 574 -2109 518z m681 -412 c584 -90 1069 -298 1511
-648 132 -104 393 -364 495 -494 348 -441 557 -923 647 -1495 18 -116 21 -178
21 -440 0 -262 -3 -324 -21 -440 -90 -572 -299 -1054 -647 -1495 -101 -129
-362 -390 -491 -491 -441 -348 -923 -557 -1495 -647 -116 -18 -178 -21 -440
-21 -262 0 -324 3 -440 21 -643 101 -1198 364 -1650 781 -282 260 -503 549
-667 868 -172 334 -265 633 -325 1039 -18 123 -18 647 0 770 60 406 153 705
325 1039 164 319 385 608 667 868 374 345 840 595 1345 721 147 37 260 56 485
81 84 10 590 -3 680 -17z"/>
<path d="M4787 5513 c-14 -21 -218 -341 -456 -712 -237 -371 -431 -677 -431
-680 0 -14 141 -100 212 -129 214 -89 503 -81 703 21 182 92 340 262 414 447
97 244 77 530 -54 753 -73 124 -215 261 -332 321 l-33 16 -23 -37z"/>
<path d="M2431 4699 c-83 -61 -151 -114 -151 -117 0 -4 226 -316 503 -693 276
-378 562 -769 635 -870 l133 -184 -278 -6 c-153 -4 -405 -7 -560 -8 l-283 -1
0 -195 0 -195 956 0 955 0 -20 28 c-11 15 -195 266 -409 557 -215 292 -599
814 -854 1162 -254 348 -466 633 -469 633 -4 0 -75 -50 -158 -111z"/>
<path d="M3200 1665 l0 -195 750 0 750 0 0 195 0 195 -750 0 -750 0 0 -195z"/>
</g>
</svg>
