<svg xmlns="http://www.w3.org/2000/svg" xmlns:xlink="http://www.w3.org/1999/xlink" viewBox="0 0 265 265"><defs><clipPath id="clip-path"><path d="M199.38,27.69,64.62,238.31A124.44,124.44,0,0,0,132.88,258c68.72-.48,124.59-57.17,124.11-125.88A124.9,124.9,0,0,0,199.38,27.69Z" style="fill:none"/></clipPath></defs><title>profile-2</title><g id="Layer_2" data-name="Layer 2"><g id="Layer_1-2" data-name="Layer 1"><path d="M199.38,27.69,64.62,238.31A124.44,124.44,0,0,0,132.88,258c68.72-.48,124.59-57.17,124.11-125.88A124.9,124.9,0,0,0,199.38,27.69Z" style="fill:#ffef00"/><circle cx="132.5" cy="132.5" r="125" style="fill:none;stroke:#000;stroke-miterlimit:10;stroke-width:15px"/><polyline points="92 87 149.5 165.5 92 165.5" style="fill:none;stroke:#f90b88;stroke-miterlimit:10;stroke-width:15px"/><line x1="121" y1="202" x2="178" y2="202" style="fill:#fff;stroke:#f40c2e;stroke-miterlimit:10;stroke-width:15px"/><circle cx="168" cy="84" r="32.5" style="fill:#00ffe4"/><g style="clip-path:url(#clip-path)"><polyline points="92 87 149.5 165.5 92 165.5" style="fill:none;stroke:#000;stroke-miterlimit:10;stroke-width:15px"/><circle cx="168" cy="84" r="32.5" style="fill:#005aff"/></g></g></g></svg>