<?xml version="1.0" encoding="UTF-8"?>
<svg width="76px" height="68px" viewBox="0 0 76 68" version="1.1" xmlns="http://www.w3.org/2000/svg" xmlns:xlink="http://www.w3.org/1999/xlink">
    <!-- Generator: Sketch 53.2 (72643) - https://sketchapp.com -->
    <title>Artboard</title>
    <desc>Created with Sketch.</desc>
    <g id="Artboard" stroke="none" stroke-width="1" fill="none" fill-rule="evenodd">
        <path d="M54,0 L67,0 C71.418278,-8.11624501e-16 75,3.581722 75,8 L75,60 C75,64.418278 71.418278,68 67,68 L9,68 C4.581722,68 1,64.418278 1,60 L1,45 L9,45 C33.8528137,45 54,24.8528137 54,0 Z" id="Rectangle-2" fill="#0920A3"></path>
        <path d="M19.9705627,-1.77635684e-15 L45.8314498,25.860887 C41.1520785,32.5130491 34.716207,37.8403124 27.1979748,41.1685375 L1,14.9705627 L1,8 C1,3.581722 4.581722,-9.64732338e-16 9,-1.77635684e-15 L19.9705627,-1.77635684e-15 Z" id="Rectangle-3" fill="#005AFF"></path>
        <path d="M35.9705627,3.55271368e-15 L51.3157954,15.3452326 C48.4749557,23.1774242 43.521561,29.9968152 37.1442272,35.1147899 L3.88118724,1.85174999 C5.26838422,0.69555874 7.05296389,3.57664732e-16 9,0 L35.9705627,0 Z" id="Rectangle-4" fill="#85FFCD"></path>
        <path d="M45.8314498,25.860887 L75,55.0294373 L75,60 C75,64.418278 71.418278,68 67,68 L54.0294373,68 L27.1979748,41.1685375 C34.716207,37.8403124 41.1520785,32.5130491 45.8314498,25.860887 Z" id="Rectangle-2" fill="#FF6464"></path>
        <path d="M51.3157954,15.3452326 L75,39.0294373 L75,60 C75,63.5088177 72.7410459,66.4900284 69.5981035,67.5686662 L37.1442272,35.1147899 C43.521561,29.9968152 48.4749557,23.1774242 51.3157954,15.3452326 Z M21,0 L35.9705627,0 L21,0 Z" id="Rectangle-2" fill="#FFBE67"></path>
    </g>
</svg>